<svg xmlns="http://www.w3.org/2000/svg" xmlns:xlink="http://www.w3.org/1999/xlink" width="500" zoomAndPan="magnify" viewBox="0 0 375 374.999991" height="500" preserveAspectRatio="xMidYMid meet" version="1.2"><defs><clipPath id="261fda3ab2"><path d="M 103.085938 52.839844 L 151.300781 52.839844 L 151.300781 279.410156 L 103.085938 279.410156 Z M 103.085938 52.839844 "/></clipPath><clipPath id="c5cd77030d"><path d="M 127.191406 52.839844 C 140.507812 52.839844 151.300781 63.632812 151.300781 76.945312 L 151.300781 255.207031 C 151.300781 268.523438 140.507812 279.316406 127.191406 279.316406 C 113.878906 279.316406 103.085938 268.523438 103.085938 255.207031 L 103.085938 76.945312 C 103.085938 63.632812 113.878906 52.839844 127.191406 52.839844 Z M 127.191406 52.839844 "/></clipPath><clipPath id="00b1e32d42"><path d="M 103.085938 52.847656 L 151.085938 52.847656 L 151.085938 279.339844 L 103.085938 279.339844 Z M 103.085938 52.847656 "/></clipPath><clipPath id="1699b5968c"><path d="M 127.085938 52.847656 C 140.339844 52.847656 151.085938 63.640625 151.085938 76.957031 L 151.085938 255.222656 C 151.085938 268.535156 140.339844 279.328125 127.085938 279.328125 C 113.828125 279.328125 103.085938 268.535156 103.085938 255.222656 L 103.085938 76.957031 C 103.085938 63.640625 113.828125 52.847656 127.085938 52.847656 Z M 127.085938 52.847656 "/></clipPath></defs><g id="536a280ba6"><g style="fill:#191919;fill-opacity:1;"><g transform="translate(154.969271, 149.287285)"><path style="stroke:none" d="M 4.328125 -97.921875 L 34.421875 -97.921875 C 39.210938 -97.921875 42.914062 -96.835938 45.53125 -94.671875 C 48.15625 -92.503906 49.925781 -89.460938 50.84375 -85.546875 C 51.757812 -81.640625 52.21875 -76.644531 52.21875 -70.5625 C 52.21875 -65.019531 51.492188 -60.6875 50.046875 -57.5625 C 48.597656 -54.445312 46.085938 -52.285156 42.515625 -51.078125 C 45.484375 -50.460938 47.628906 -48.976562 48.953125 -46.625 C 50.285156 -44.269531 50.953125 -41.078125 50.953125 -37.046875 L 50.734375 0 L 31.578125 0 L 31.578125 -38.296875 C 31.578125 -41.035156 31.046875 -42.785156 29.984375 -43.546875 C 28.921875 -44.304688 26.984375 -44.6875 24.171875 -44.6875 L 24.171875 0 L 4.328125 0 Z M 28.953125 -61.671875 C 31.691406 -61.671875 33.0625 -64.632812 33.0625 -70.5625 C 33.0625 -73.144531 32.945312 -75.082031 32.71875 -76.375 C 32.488281 -77.664062 32.066406 -78.554688 31.453125 -79.046875 C 30.847656 -79.546875 29.976562 -79.796875 28.84375 -79.796875 L 24.28125 -79.796875 L 24.28125 -61.671875 Z M 28.953125 -61.671875 "/></g></g><g style="fill:#191919;fill-opacity:1;"><g transform="translate(209.338719, 149.287285)"><path style="stroke:none" d="M 12.765625 0 L 12.765625 -79.109375 L 1.140625 -79.109375 L 1.140625 -97.921875 L 44 -97.921875 L 44 -79.109375 L 32.375 -79.109375 L 32.375 0 Z M 12.765625 0 "/></g></g><g style="fill:#191919;fill-opacity:1;"><g transform="translate(46.156869, 149.287285)"><path style="stroke:none" d="M 4.328125 -97.921875 L 30.203125 -97.921875 C 38.035156 -97.921875 43.625 -95.394531 46.96875 -90.34375 C 50.3125 -85.289062 51.984375 -77.898438 51.984375 -68.171875 C 51.984375 -58.441406 50.5 -51.109375 47.53125 -46.171875 C 44.570312 -41.234375 39.253906 -38.765625 31.578125 -38.765625 L 23.59375 -38.765625 L 23.59375 0 L 4.328125 0 Z M 24.734375 -56.4375 C 27.085938 -56.4375 28.816406 -56.867188 29.921875 -57.734375 C 31.023438 -58.609375 31.75 -59.863281 32.09375 -61.5 C 32.4375 -63.132812 32.609375 -65.472656 32.609375 -68.515625 C 32.609375 -72.617188 32.148438 -75.582031 31.234375 -77.40625 C 30.328125 -79.226562 28.503906 -80.140625 25.765625 -80.140625 L 23.59375 -80.140625 L 23.59375 -56.4375 Z M 24.734375 -56.4375 "/></g></g><g style="fill:#191919;fill-opacity:1;"><g transform="translate(153.974862, 277.631341)"><path style="stroke:none" d="M 5.03125 0 L 5.03125 -113.703125 L 27.796875 -113.703125 L 27.796875 -19.328125 L 51.21875 -19.328125 L 51.21875 0 Z M 5.03125 0 "/></g></g><g style="fill:#191919;fill-opacity:1;"><g transform="translate(206.519251, 277.631341)"><path style="stroke:none" d="M 3.96875 0 L 3.96875 -113.703125 L 25.9375 -113.703125 L 25.9375 0 Z M 3.96875 0 "/></g></g><g style="fill:#191919;fill-opacity:1;"><g transform="translate(236.563524, 277.631341)"><path style="stroke:none" d="M 32.15625 1.0625 C 22.976562 1.0625 16.007812 -1.738281 11.25 -7.34375 C 6.488281 -12.945312 4.109375 -20.820312 4.109375 -30.96875 L 4.109375 -85.109375 C 4.109375 -94.898438 6.488281 -102.285156 11.25 -107.265625 C 16.007812 -112.253906 22.976562 -114.75 32.15625 -114.75 C 41.332031 -114.75 48.300781 -112.253906 53.0625 -107.265625 C 57.832031 -102.285156 60.21875 -94.898438 60.21875 -85.109375 L 60.21875 -30.96875 C 60.21875 -20.738281 57.832031 -12.84375 53.0625 -7.28125 C 48.300781 -1.71875 41.332031 1.0625 32.15625 1.0625 Z M 32.15625 -19.859375 C 34.1875 -19.859375 35.554688 -20.738281 36.265625 -22.5 C 36.972656 -24.257812 37.328125 -26.726562 37.328125 -29.90625 L 37.328125 -85.5 C 37.328125 -87.96875 36.992188 -89.972656 36.328125 -91.515625 C 35.671875 -93.066406 34.328125 -93.84375 32.296875 -93.84375 C 28.503906 -93.84375 26.609375 -90.972656 26.609375 -85.234375 L 26.609375 -29.78125 C 26.609375 -26.519531 27.003906 -24.050781 27.796875 -22.375 C 28.585938 -20.695312 30.039062 -19.859375 32.15625 -19.859375 Z M 32.15625 -19.859375 "/></g></g><g style="fill:#191919;fill-opacity:1;"><g transform="translate(45.194241, 277.631341)"><path style="stroke:none" d="M 5.03125 0 L 5.03125 -113.703125 L 50.5625 -113.703125 L 50.5625 -91.59375 L 27.921875 -91.59375 L 27.921875 -73.453125 L 49.375 -73.453125 L 49.375 -51.625 L 27.921875 -51.625 L 27.921875 0 Z M 5.03125 0 "/></g></g><g clip-rule="nonzero" clip-path="url(#261fda3ab2)"><g clip-rule="nonzero" clip-path="url(#c5cd77030d)"><path style=" stroke:none;fill-rule:nonzero;fill:#ffffff;fill-opacity:1;" d="M 103.085938 52.839844 L 151.300781 52.839844 L 151.300781 279.222656 L 103.085938 279.222656 Z M 103.085938 52.839844 "/></g></g><g clip-rule="nonzero" clip-path="url(#00b1e32d42)"><g clip-rule="nonzero" clip-path="url(#1699b5968c)"><path style="fill:none;stroke-width:22;stroke-linecap:butt;stroke-linejoin:miter;stroke:#c29ba9;stroke-opacity:1;stroke-miterlimit:4;" d="M 32.142646 -0.000344871 C 49.892181 -0.000344871 64.283271 14.388792 64.283271 32.142163 L 64.283271 269.805076 C 64.283271 287.55324 49.892181 301.942376 32.142646 301.942376 C 14.38788 301.942376 0.00202134 287.55324 0.00202134 269.805076 L 0.00202134 32.142163 C 0.00202134 14.388792 14.38788 -0.000344871 32.142646 -0.000344871 Z M 32.142646 -0.000344871 " transform="matrix(0.746719,0,0,0.750078,103.084428,52.847915)"/></g></g></g></svg>