<svg xmlns="http://www.w3.org/2000/svg" xmlns:xlink="http://www.w3.org/1999/xlink" width="375" zoomAndPan="magnify" viewBox="0 0 281.25 281.249989" height="375" preserveAspectRatio="xMidYMid meet" version="1.2"><defs><clipPath id="23d91f9bb4"><path d="M 47.550781 37.367188 L 57.160156 37.367188 L 57.160156 82.535156 L 47.550781 82.535156 Z M 47.550781 37.367188 "/></clipPath><clipPath id="3ec91bb444"><path d="M 52.355469 37.367188 C 55.007812 37.367188 57.160156 39.519531 57.160156 42.171875 L 57.160156 77.707031 C 57.160156 80.363281 55.007812 82.515625 52.355469 82.515625 C 49.699219 82.515625 47.550781 80.363281 47.550781 77.707031 L 47.550781 42.171875 C 47.550781 39.519531 49.699219 37.367188 52.355469 37.367188 Z M 52.355469 37.367188 "/></clipPath><clipPath id="5e71663ba0"><path d="M 47.550781 37.375 L 57.054688 37.375 L 57.054688 82.585938 L 47.550781 82.585938 Z M 47.550781 37.375 "/></clipPath><clipPath id="2c0a1a89f8"><path d="M 52.300781 37.375 C 54.929688 37.375 57.054688 39.527344 57.054688 42.1875 L 57.054688 77.765625 C 57.054688 80.425781 54.929688 82.578125 52.300781 82.578125 C 49.675781 82.578125 47.550781 80.425781 47.550781 77.765625 L 47.550781 42.1875 C 47.550781 39.527344 49.675781 37.375 52.300781 37.375 Z M 52.300781 37.375 "/></clipPath></defs><g id="d4c9676f5d"><path style=" stroke:none;fill-rule:nonzero;fill:#191919;fill-opacity:1;" d="M 58.757812 37.074219 L 64.757812 37.074219 C 65.707031 37.074219 66.445312 37.289062 66.96875 37.71875 C 67.492188 38.152344 67.84375 38.757812 68.027344 39.539062 C 68.207031 40.320312 68.296875 41.316406 68.296875 42.527344 C 68.296875 43.636719 68.152344 44.5 67.867188 45.121094 C 67.578125 45.738281 67.082031 46.171875 66.371094 46.414062 C 66.957031 46.535156 67.386719 46.828125 67.648438 47.300781 C 67.917969 47.769531 68.050781 48.40625 68.050781 49.207031 L 68.003906 56.59375 L 64.1875 56.59375 L 64.1875 48.957031 C 64.1875 48.414062 64.078125 48.066406 63.867188 47.914062 C 63.65625 47.761719 63.269531 47.6875 62.707031 47.6875 L 62.707031 56.59375 L 58.757812 56.59375 Z M 63.664062 44.300781 C 64.207031 44.300781 64.480469 43.707031 64.480469 42.527344 C 64.480469 42.011719 64.457031 41.625 64.414062 41.367188 C 64.367188 41.109375 64.285156 40.933594 64.160156 40.835938 C 64.042969 40.738281 63.867188 40.6875 63.640625 40.6875 L 62.730469 40.6875 L 62.730469 44.300781 Z M 63.664062 44.300781 "/><path style=" stroke:none;fill-rule:nonzero;fill:#191919;fill-opacity:1;" d="M 71.273438 56.59375 L 71.273438 40.820312 L 68.957031 40.820312 L 68.957031 37.074219 L 77.503906 37.074219 L 77.503906 40.820312 L 75.183594 40.820312 L 75.183594 56.59375 Z M 71.273438 56.59375 "/><path style=" stroke:none;fill-rule:nonzero;fill:#191919;fill-opacity:1;" d="M 37.066406 37.074219 L 42.226562 37.074219 C 43.78125 37.074219 44.894531 37.578125 45.5625 38.585938 C 46.230469 39.59375 46.5625 41.066406 46.5625 43.003906 C 46.5625 44.945312 46.265625 46.40625 45.675781 47.390625 C 45.085938 48.375 44.023438 48.871094 42.496094 48.871094 L 40.90625 48.871094 L 40.90625 56.59375 L 37.066406 56.59375 Z M 41.132812 45.347656 C 41.601562 45.347656 41.945312 45.261719 42.167969 45.085938 C 42.386719 44.910156 42.527344 44.660156 42.597656 44.332031 C 42.664062 44.007812 42.699219 43.542969 42.699219 42.9375 C 42.699219 42.121094 42.605469 41.527344 42.421875 41.164062 C 42.242188 40.800781 41.878906 40.617188 41.335938 40.617188 L 40.90625 40.617188 L 40.90625 45.347656 Z M 41.132812 45.347656 "/><path style=" stroke:none;fill-rule:nonzero;fill:#191919;fill-opacity:1;" d="M 58.699219 82.179688 L 58.699219 59.511719 L 63.234375 59.511719 L 63.234375 78.328125 L 67.90625 78.328125 L 67.90625 82.179688 Z M 58.699219 82.179688 "/><path style=" stroke:none;fill-rule:nonzero;fill:#191919;fill-opacity:1;" d="M 68.960938 59.511719 L 73.339844 59.511719 L 73.339844 82.179688 L 68.960938 82.179688 Z M 68.960938 59.511719 "/><path style=" stroke:none;fill-rule:nonzero;fill:#191919;fill-opacity:1;" d="M 80.566406 82.390625 C 78.738281 82.390625 77.347656 81.832031 76.398438 80.714844 C 75.445312 79.597656 74.972656 78.027344 74.972656 76.003906 L 74.972656 65.210938 C 74.972656 63.261719 75.445312 61.785156 76.398438 60.792969 C 77.347656 59.796875 78.738281 59.300781 80.566406 59.300781 C 82.394531 59.300781 83.785156 59.796875 84.734375 60.792969 C 85.683594 61.785156 86.160156 63.261719 86.160156 65.210938 L 86.160156 76.003906 C 86.160156 78.042969 85.683594 79.617188 84.734375 80.730469 C 83.785156 81.835938 82.394531 82.390625 80.566406 82.390625 Z M 80.566406 78.222656 C 80.972656 78.222656 81.246094 78.046875 81.382812 77.695312 C 81.523438 77.339844 81.59375 76.847656 81.59375 76.214844 L 81.59375 65.132812 C 81.59375 64.640625 81.527344 64.242188 81.398438 63.933594 C 81.265625 63.621094 80.996094 63.46875 80.59375 63.46875 C 79.839844 63.46875 79.460938 64.039062 79.460938 65.183594 L 79.460938 76.242188 C 79.460938 76.890625 79.539062 77.382812 79.695312 77.71875 C 79.855469 78.054688 80.144531 78.222656 80.566406 78.222656 Z M 80.566406 78.222656 "/><path style=" stroke:none;fill-rule:nonzero;fill:#191919;fill-opacity:1;" d="M 37.011719 82.179688 L 37.011719 59.511719 L 46.085938 59.511719 L 46.085938 63.917969 L 41.574219 63.917969 L 41.574219 67.535156 L 45.847656 67.535156 L 45.847656 71.886719 L 41.574219 71.886719 L 41.574219 82.179688 Z M 37.011719 82.179688 "/><g clip-rule="nonzero" clip-path="url(#23d91f9bb4)"><g clip-rule="nonzero" clip-path="url(#3ec91bb444)"><path style=" stroke:none;fill-rule:nonzero;fill:#ffffff;fill-opacity:1;" d="M 47.550781 37.367188 L 57.160156 37.367188 L 57.160156 82.496094 L 47.550781 82.496094 Z M 47.550781 37.367188 "/></g></g><g clip-rule="nonzero" clip-path="url(#5e71663ba0)"><g clip-rule="nonzero" clip-path="url(#2c0a1a89f8)"><path style="fill:none;stroke-width:22;stroke-linecap:butt;stroke-linejoin:miter;stroke:#c29ba9;stroke-opacity:1;stroke-miterlimit:4;" d="M 20.712712 0.00718881 C 32.170972 0.00718881 41.432925 9.274392 41.432925 20.728049 L 41.432925 173.914409 C 41.432925 185.368066 32.170972 194.635269 20.712712 194.635269 C 9.271477 194.635269 0.00952467 185.368066 0.00952467 173.914409 L 0.00952467 20.728049 C 0.00952467 9.274392 9.271477 0.00718881 20.712712 0.00718881 Z M 20.712712 0.00718881 " transform="matrix(0.229433,0,0,0.232254,47.548596,37.37333)"/></g></g></g></svg>